PathFileType	4	(X/Y/Z)	C:\Users\Basilio\Documents\Thesis Gigler\squatting_fais\c3dfiles\058\SLS_back_pre3\markers_experimental.trc
DataRate	CameraRate	NumFrames	NumMarkers	Units	OrigDataRate	OrigDataStartFrame	OrigNumFrames
200.000000	200.000000	4	59	mm	200.000000	150	1203
Frame#	Time	FHD			LBHD			RBHD			C7			T10			CLAV			LSHO			LUUPA			LMUPA			LDUPA			LLEP			LMEP			LUL			LRFIN			RSHO			RUPA1			RMUPA			RDUPA			RLEP			RMEP			RUL			RUFIN			LASI			RASI			USACR			LSACR			RSACR			LTHI1			LTHI2			LTHI3			LTHI4			LLFC			LMFC			LTIB1			LTIB2			LTIB3			LTIB4			LLMAL			LMMAL			LHEE			LMT1			LMT2			LMT5			RTHI			RTHI2			RTHI3			RTHI4			RLFC			RMFC			RTIB1			RTIB2			RTIB3			RTIB4			RLMAL			RMMAL			RHEE			RMT1			RMT2			RMT5			
		X1	Y1	Z1	X2	Y2	Z2	X3	Y3	Z3	X4	Y4	Z4	X5	Y5	Z5	X6	Y6	Z6	X7	Y7	Z7	X8	Y8	Z8	X9	Y9	Z9	X10	Y10	Z10	X11	Y11	Z11	X12	Y12	Z12	X13	Y13	Z13	X14	Y14	Z14	X15	Y15	Z15	X16	Y16	Z16	X17	Y17	Z17	X18	Y18	Z18	X19	Y19	Z19	X20	Y20	Z20	X21	Y21	Z21	X22	Y22	Z22	X23	Y23	Z23	X24	Y24	Z24	X25	Y25	Z25	X26	Y26	Z26	X27	Y27	Z27	X28	Y28	Z28	X29	Y29	Z29	X30	Y30	Z30	X31	Y31	Z31	X32	Y32	Z32	X33	Y33	Z33	X34	Y34	Z34	X35	Y35	Z35	X36	Y36	Z36	X37	Y37	Z37	X38	Y38	Z38	X39	Y39	Z39	X40	Y40	Z40	X41	Y41	Z41	X42	Y42	Z42	X43	Y43	Z43	X44	Y44	Z44	X45	Y45	Z45	X46	Y46	Z46	X47	Y47	Z47	X48	Y48	Z48	X49	Y49	Z49	X50	Y50	Z50	X51	Y51	Z51	X52	Y52	Z52	X53	Y53	Z53	X54	Y54	Z54	X55	Y55	Z55	X56	Y56	Z56	X57	Y57	Z57	X58	Y58	Z58	X59	Y59	Z59	

151	0.75	-283.1231384277344	1800.932250976563	-633.2301635742189	-440.2808837890626	1756.707153320313	-709.7925415039064	-267.3727722167969	1806.27587890625	-775.0027465820315	-450.4287719726564	1586.837646484375	-724.1330566406251	-435.7921752929689	1279.851806640625	-711.0955200195314	-294.2952575683594	1547.087646484375	-704.3404541015626	-304.1932983398438	1600.172729492188	-856.6013793945315	-142.8244323730469	1537.623046875	-956.400817871094	-121.2252578735352	1576.581420898438	-932.4020996093752	-73.6464309692383	1543.40234375	-946.8411865234377	0.7196592092514039	1551.744750976563	-927.509948730469	6.54043483734131	1495.332275390625	-894.4837646484377	263.4966735839844	1604.828979492188	-877.507995605469	352.1300048828126	1608.185546875	-791.237243652344	-329.2759094238282	1598.492431640625	-552.9990234375001	-169.0363311767578	1517.461059570313	-446.5401611328126	-147.5727233886719	1556.628295898438	-468.9426574707032	-99.93147277832034	1528.49267578125	-448.257537841797	-32.44287109375001	1523.321166992188	-457.3113403320314	-23.49985885620118	1463.845336914063	-507.5578918457032	233.8440551757813	1578.83984375	-471.0598144531251	323.5333557128907	1601.643676757813	-540.7167968750001	-249.1492156982422	1090.687866210938	-844.2842407226565	-245.8157043457032	1076.847045898438	-602.5290527343751	-442.8226928710939	1163.161499023438	-707.5187377929689	-449.9862060546876	1132.702514648438	-736.8049316406251	-444.1027221679689	1129.229248046875	-679.3885498046876	-207.6397552490235	827.9938964843752	-926.9597778320315	-153.7973175048828	761.4281616210939	-919.1765136718752	-115.23388671875	771.1829833984377	-888.1978759765627	-166.3809661865235	702.0466918945314	-918.583923339844	-164.041244506836	622.3619384765626	-904.718933105469	-154.8705596923828	602.1875610351564	-775.3559570312502	-233.1853942871094	512.1210327148439	-878.637878417969	-293.1119689941407	552.5941162109376	-923.8214111328127	-282.1578674316407	512.5497436523439	-908.9160156250002	-360.6690673828126	474.9923706054689	-880.9592285156252	-563.5667114257814	460.346649169922	-889.7817382812502	-528.7110595703126	425.5445556640626	-810.1667480468752	-588.5604248046876	507.2972412109376	-822.4151611328127	-582.0250244140626	284.8869018554688	-839.4984130859377	-592.4128417968751	286.3765869140626	-884.8320922851565	-631.2877197265626	335.8783874511719	-920.8364868164065	-350.6145935058594	862.6155395507815	-553.3279418945314	-313.9307861328126	807.791442871094	-557.0568237304689	-281.1782836914063	808.2473754882815	-558.2063598632814	-341.1919250488282	731.4378051757814	-578.7995605468751	-335.4642028808594	550.7985229492189	-611.4334106445314	-299.8051147460938	549.6729736328126	-744.3961181640626	-290.1736755371094	354.4759521484376	-715.6270141601564	-333.7265930175782	270.4560241699219	-657.1548461914064	-298.7043762207032	266.0136718750001	-689.6839599609376	-309.5069885253907	225.5273132324219	-728.8213500976564	-374.0186157226563	117.5065155029297	-699.4860229492189	-341.7065124511719	144.8785400390625	-785.1119384765627	-439.4516906738282	102.2412719726563	-763.9298706054689	-227.3514099121094	60.4081153869629	-775.1131591796877	-224.9769744873047	57.36507415771486	-723.7381591796876	-273.6732482910157	27.19731712341309	-672.6064453125001	
152	0.755	-282.8739929199219	1800.884033203125	-633.1996459960939	-440.0631713867189	1756.803833007813	-709.6939086914064	-267.3715820312501	1806.222412109375	-775.049499511719	-450.2608642578126	1586.90234375	-724.0072631835939	-435.8339843750001	1279.936157226563	-711.0076293945314	-294.0206298828126	1547.149291992188	-704.2705078125001	-304.0756835937501	1600.216918945313	-856.4639892578127	-142.6532135009766	1537.680908203125	-956.3269653320315	-121.0339508056641	1576.661376953125	-932.3822021484377	-73.46473693847658	1543.494384765625	-946.8552246093752	0.8076437115669253	1551.851806640625	-927.3840332031252	6.768197536468508	1495.63037109375	-894.4533691406252	263.7478942871094	1604.93603515625	-877.4576416015627	352.2956237792969	1608.229125976563	-791.1279296875002	-329.1277465820313	1598.548583984375	-552.9360961914064	-168.6908111572266	1517.519165039063	-446.4695434570314	-147.4226226806641	1556.756591796875	-468.9263610839845	-99.75381469726565	1528.552368164063	-448.1758422851564	-32.14267349243165	1523.453125	-457.3950500488282	-23.122709274292	1463.945190429688	-507.6021728515626	234.3308563232422	1578.960327148438	-471.2976379394532	323.6029968261719	1601.927368164063	-540.7907714843751	-249.301010131836	1090.714721679688	-844.2724609375002	-245.9478149414063	1076.798217773438	-602.5694580078126	-442.8862915039064	1163.33544921875	-707.3998413085939	-450.079315185547	1132.791748046875	-736.7380981445314	-444.2055053710939	1129.3779296875	-679.2006835937501	-207.4569244384766	828.9770507812502	-927.0227050781252	-153.5996551513672	762.0322265625001	-919.6278076171877	-114.9578475952149	771.717468261719	-888.5644531250002	-166.1114654541016	702.5778808593751	-919.2537231445315	-163.6403198242188	623.1085815429689	-905.4467773437502	-154.5726013183594	602.6360473632814	-775.952819824219	-233.7365722656251	513.6331176757814	-878.997253417969	-293.2218933105469	554.8696289062501	-924.2435302734377	-282.7017517089844	514.7412109375001	-909.2114257812502	-361.9412536621094	477.8411254882814	-881.010681152344	-564.5150146484376	466.0858764648439	-889.8792724609377	-530.2166748046876	430.2173767089845	-810.5596313476565	-588.3652954101564	513.4495849609376	-822.612976074219	-587.1169433593751	291.1230773925782	-839.334655761719	-596.8775634765626	292.9660339355469	-884.8447875976565	-634.9522705078126	343.0184936523438	-921.0523681640627	-350.8456420898438	862.736755371094	-553.2922973632814	-314.0099182128907	807.7886352539065	-557.0576171875001	-281.2677612304688	808.254089355469	-558.2083129882814	-341.4327087402344	731.4727172851564	-578.8011474609376	-335.6943359375001	550.8450927734376	-611.4459838867189	-300.1327514648438	549.7138061523439	-744.4870605468751	-292.0253601074219	353.3365173339844	-715.3694458007814	-333.6853637695313	270.4709777832032	-657.2712402343751	-298.6091918945313	266.3348693847657	-689.8858642578126	-309.5616455078126	225.5337677001954	-728.9097290039064	-373.9903564453126	117.5481185913086	-699.5349731445314	-341.7159729003907	144.8821563720703	-785.183044433594	-439.446014404297	102.2880477905274	-763.9020385742189	-228.184066772461	60.46005630493165	-775.7059326171877	-225.0172271728516	57.30001831054689	-723.7663574218751	-273.6961669921876	27.23649215698243	-672.6270141601564	
153	0.76	-282.6962585449219	1800.903564453125	-633.0172119140626	-439.9780883789064	1756.89794921875	-709.5521850585939	-266.9693908691407	1806.3125	-774.934265136719	-450.0193176269532	1587.1162109375	-723.8862304687501	-435.8309631347657	1280.092529296875	-710.9033813476564	-293.8982543945313	1547.153198242188	-704.1884765625001	-303.9650573730469	1600.3115234375	-856.3638916015627	-142.510971069336	1537.7783203125	-956.2742309570315	-120.7821121215821	1576.82421875	-932.2813110351565	-73.41879272460939	1543.5517578125	-946.770446777344	0.9226061701774599	1551.884033203125	-927.3094482421877	7.171593666076662	1495.63330078125	-894.5273437500002	263.8599548339844	1605.055053710938	-877.3203735351565	352.4192199707032	1608.292236328125	-791.077575683594	-329.0039062500001	1598.677856445313	-552.8342895507814	-168.4353485107422	1517.694580078125	-446.4671630859376	-147.1942443847657	1556.832885742188	-468.868377685547	-99.32563781738284	1528.749145507813	-448.1925354003907	-31.62531089782716	1523.52490234375	-457.6286926269532	-22.77240943908692	1463.995971679688	-507.6597900390626	234.7634735107422	1579.17236328125	-471.3550109863282	323.9151000976563	1602.177001953125	-540.8974609375001	-249.5048980712891	1090.754272460938	-844.2644042968752	-246.0297851562501	1076.828247070313	-602.5210571289064	-442.946990966797	1163.441528320313	-707.2885742187501	-450.2398376464845	1132.907104492188	-736.6115722656251	-444.3026733398439	1129.579833984375	-679.0230102539064	-207.4927978515626	829.5139770507815	-927.450622558594	-153.2994384765625	762.6649169921876	-920.0198974609377	-114.6719284057617	772.3341064453127	-888.9749145507815	-165.6750640869141	703.0200805664064	-919.772644042969	-163.3584899902344	623.8428955078126	-906.1309814453127	-153.798324584961	603.1717529296876	-776.503356933594	-234.1580047607422	514.9360351562501	-879.6090087890627	-293.4586791992188	557.0582885742189	-924.5780029296877	-283.4961547851563	516.7722167968751	-909.707946777344	-362.6253967285157	480.941131591797	-881.5496215820315	-565.0190429687501	471.6095275878907	-889.917663574219	-532.1908569335939	435.302459716797	-810.037780761719	-587.7535400390626	519.7003784179689	-822.8691406250002	-592.4102172851564	297.4471130371094	-839.351013183594	-602.0690307617189	299.4208374023438	-884.7149658203127	-638.2601318359376	350.4120483398438	-921.3269042968752	-350.9719543457032	862.763854980469	-553.3240356445314	-314.1386413574219	807.8403930664065	-557.0606079101564	-281.5726013183594	808.0766601562502	-558.2117309570314	-341.5310363769532	731.4458618164064	-578.7655639648439	-335.9834594726563	550.8806152343751	-611.4856567382814	-300.3842163085938	549.8137207031251	-744.5022583007814	-292.2222900390626	353.3519287109376	-715.4893188476564	-333.6604309082032	270.4846496582032	-657.3746948242189	-298.6488647460938	266.4042053222657	-690.0507812500001	-309.6629333496094	225.9249267578126	-729.0239868164064	-373.9656372070313	117.5607376098633	-699.6089477539064	-341.8436279296876	144.7747192382813	-785.2554321289065	-439.4234619140626	102.3172149658203	-763.9453125000001	-228.2391052246094	60.15482330322267	-776.3503417968752	-224.9881896972657	57.30665969848634	-723.8129272460939	-273.6304626464844	27.25145339965821	-672.6642456054689	
154	0.765	-282.6213684082032	1800.775146484375	-632.9744873046876	-439.7463684082032	1756.970581054688	-709.4438476562501	-266.8905944824219	1806.38671875	-774.9441528320315	-449.7940673828126	1587.252807617188	-723.8259277343751	-435.9053344726564	1280.228149414063	-710.8171997070314	-293.7947998046876	1547.208984375	-704.1146850585939	-303.7865905761719	1600.3505859375	-856.2402954101565	-142.2745971679688	1537.927734375	-956.1688232421877	-120.6685409545899	1576.865478515625	-932.2278442382815	-73.32431793212892	1543.545776367188	-946.5861816406252	1.092469215393067	1551.965576171875	-927.1885986328127	7.280052661895754	1495.673706054688	-894.4343872070315	264.0606079101563	1605.1103515625	-877.247985839844	352.6181640625001	1608.312744140625	-790.962585449219	-328.9047241210938	1598.705688476563	-552.8327636718751	-168.1080474853516	1517.88916015625	-446.4180603027345	-146.6098785400391	1557.079345703125	-469.0414428710939	-99.05491638183597	1528.873413085938	-448.2675781250001	-31.38445281982423	1523.583618164063	-457.6819458007814	-22.3814754486084	1464.193359375	-507.6765747070314	235.0979766845704	1579.405029296875	-471.490936279297	323.9546813964844	1602.3271484375	-540.9943237304689	-249.7257690429688	1090.826171875	-844.285095214844	-246.0690155029297	1076.800415039063	-602.5593872070314	-443.1149902343751	1163.600219726563	-707.1384887695314	-450.3627014160157	1133.012939453125	-736.4599609375001	-444.4100036621095	1129.68603515625	-678.8640747070314	-207.4734039306641	829.8128662109377	-927.9412231445315	-153.2073822021485	763.3041381835939	-920.459899902344	-114.383056640625	773.188415527344	-889.4960937500002	-165.2053985595703	703.7637329101564	-920.553161621094	-162.9866638183594	624.5406494140626	-906.941589355469	-153.3976745605469	603.5415039062501	-777.0583496093752	-234.9941101074219	516.4841918945314	-880.0718994140627	-293.7921142578126	559.2528686523439	-925.223815917969	-284.1902465820313	519.0387573242189	-910.1007080078127	-363.6315917968751	483.9259338378907	-881.8963012695315	-565.5909423828126	477.4516601562501	-890.3869628906252	-533.5493164062501	440.574920654297	-810.3230590820315	-587.3027343750001	526.0449218750001	-823.162048339844	-597.2763671875001	304.0090332031251	-839.3867187500002	-606.6395263671876	306.0542907714844	-884.6839599609377	-641.5585937500001	357.8934326171876	-921.486267089844	-351.0327148437501	862.7805175781252	-553.2991943359376	-314.3937683105469	807.6999511718752	-557.1171875000001	-281.6531677246094	808.0284423828127	-558.2188720703126	-341.8139343261719	731.5168457031251	-578.7210083007814	-336.0287780761719	550.8001098632814	-611.5155029296876	-301.0177917480469	549.9033813476564	-744.6823120117189	-292.4890441894532	353.3294372558594	-715.6556396484376	-333.6699523925782	270.5462341308594	-657.5157470703126	-298.6652832031251	266.2976989746094	-690.1494750976564	-309.7157287597657	225.8200683593751	-729.1512451171876	-374.0014038085938	117.5824127197266	-699.6829223632814	-341.8154296875001	144.8068237304688	-785.4023437500002	-439.4239196777345	102.2859115600586	-764.0162353515626	-228.3601989746094	60.12043380737306	-776.324645996094	-224.9792022705079	57.34659576416017	-723.8402709960939	-273.5494384765626	27.35832214355469	-672.7476806640626	
